<?xml version="1.0" encoding="iso-8859-1"?>
<!-- Generator: Adobe Illustrator 19.0.0, SVG Export Plug-In . SVG Version: 6.00 Build 0)  -->
<svg version="1.1" id="Layer_1" xmlns="http://www.w3.org/2000/svg" xmlns:xlink="http://www.w3.org/1999/xlink" x="0px" y="0px"
	 viewBox="0 0 512 512" style="enable-background:new 0 0 512 512;" xml:space="preserve">
<polygon style="fill:#FFBE00;" points="412.782,324.914 256,324.914 235.085,408.823 256,475.798 512,475.798 "/>
<polygon style="fill:#FFE074;" points="99.218,324.914 0,475.798 256,475.798 256,324.914 "/>
<path style="fill:#FC2B32;" d="M256,36.202L235.085,70.28L256,98.922c34.837,0,63.179,28.342,63.179,63.179
	S290.837,225.279,256,225.279l-20.915,45.619L256,388.515c0,0,125.899-100.516,125.899-226.415
	C381.899,92.567,325.532,36.202,256,36.202z"/>
<path style="fill:#FF5D65;" d="M192.821,162.1c0-34.837,28.342-63.179,63.179-63.179v-62.72
	c-69.532,0-125.899,56.367-125.899,125.899C130.101,287.999,256,388.515,256,388.515V225.279
	C221.163,225.279,192.821,196.936,192.821,162.1z"/>
<g>
</g>
<g>
</g>
<g>
</g>
<g>
</g>
<g>
</g>
<g>
</g>
<g>
</g>
<g>
</g>
<g>
</g>
<g>
</g>
<g>
</g>
<g>
</g>
<g>
</g>
<g>
</g>
<g>
</g>
</svg>
